<?xml version="1.0" encoding="UTF-8"?><svg id="Layer_2" xmlns="http://www.w3.org/2000/svg" viewBox="0 0 101.5 9.26"><g id="Layer_1-2"><g><path d="M0,5.46L6.24,.12h3.74V5.09h1.86v2.3h-1.86v1.7h-3.4v-1.7H0v-1.93Zm6.59-.37V2.42l-3.12,2.66h3.12Z"/><path d="M21.76,9.1l-.7-1.44h-5.1l-.68,1.44h-3.46L16.24,.17h4.58l4.67,8.93h-3.73Zm-1.79-3.67l-1.5-3.07-1.46,3.07h2.96Z"/><path d="M25.87,.17h3.82l5.18,5.08V.17h3.38V9.1h-3.41l-5.59-5.41v5.41h-3.38V.17Z"/><path d="M45.62,0h.54c.79,0,1.51,.05,2.17,.16s1.2,.25,1.64,.42c.44,.17,.83,.38,1.16,.64s.59,.51,.79,.76c.19,.26,.35,.54,.46,.84s.19,.58,.23,.83c.04,.25,.05,.51,.05,.78v.36c0,.27-.02,.53-.05,.78s-.11,.53-.23,.83-.27,.59-.46,.85c-.19,.26-.45,.52-.79,.77-.34,.26-.72,.47-1.16,.65-.44,.18-.99,.32-1.64,.43s-1.38,.16-2.18,.16h-.54c-.8,0-1.53-.05-2.18-.16-.65-.11-1.2-.25-1.64-.43-.44-.18-.83-.39-1.17-.65s-.6-.51-.79-.77c-.19-.26-.34-.54-.46-.85-.12-.31-.19-.59-.23-.83s-.05-.51-.05-.78v-.36c0-.27,.02-.53,.05-.78,.04-.25,.11-.52,.23-.83,.12-.3,.27-.58,.46-.84,.19-.26,.45-.51,.79-.76s.73-.46,1.17-.64c.44-.17,.99-.31,1.64-.42,.65-.11,1.38-.16,2.18-.16Zm3.52,4.68v-.17c0-.26-.05-.51-.14-.74-.1-.23-.26-.45-.49-.67-.23-.22-.57-.39-1.01-.52s-.98-.19-1.61-.19-1.18,.06-1.63,.19-.78,.3-1.01,.52c-.22,.22-.38,.44-.47,.67-.09,.23-.14,.47-.14,.74v.14c0,.26,.05,.51,.14,.75,.1,.24,.26,.47,.48,.7,.22,.23,.56,.41,1.01,.55,.45,.14,.99,.2,1.61,.2s1.16-.07,1.61-.2c.45-.13,.79-.31,1.01-.53,.22-.22,.38-.45,.48-.69s.14-.49,.14-.75Z"/><path d="M56.78,9.1V2.6h-3.85V.17h11.11V2.6h-3.85v6.49h-3.41Z"/><path d="M64.93,9.1V.17h3.41V3.32h5.58V.17h3.4V9.1h-3.4v-3.4h-5.58v3.4h-3.41Z"/><path d="M78.47,.17h9.88V2.35h-6.52v1.12h6.38v2.17h-6.38v1.22h6.61v2.23h-9.97V.17Z"/><path d="M92.83,6.04v3.06h-3.41V.17h8.11c2.5,0,3.76,.76,3.76,2.29v.13c0,.3-.06,.58-.18,.83s-.28,.45-.47,.6c-.2,.15-.39,.27-.58,.36-.19,.09-.38,.16-.57,.2,.57,.13,1.02,.37,1.34,.74,.33,.36,.49,.83,.49,1.39v1.32c0,.46,.06,.8,.17,1.01v.06h-3.48c-.07-.08-.11-.24-.11-.47v-1.04c0-.53-.14-.92-.41-1.17-.28-.25-.74-.38-1.4-.38h-3.26Zm0-3.7v1.54h3.91c.69,0,1.03-.26,1.03-.77h0c0-.52-.34-.77-1.03-.77h-3.91Z"/></g></g></svg>